# xmcd CD database file
#
# Track frame offsets:
#	182
#	30920
#	65027
#	95880
#	126067
#	158265
#	188232
#	213180
#	242147
#
# Disc length: 3819 seconds
#
# Revision: 0
# Processed by: cddbd v1.5PL3 Copyright (c) Steve Scherf et al.
# Submitted via: CDex 1.51
#
DISCID=720ee909
DTITLE=Kieran Overs - Shape Shift
DYEAR=1993
DGENRE=Jazz
TTITLE0=Mr. B.G.
TTITLE1=Spirit Willing
TTITLE2=Undercut
TTITLE3=3/4 Nancy
TTITLE4=Re: Person I Knew
TTITLE5=Shape Shift
TTITLE6=Moon In Pisces
TTITLE7=Lady with a Hat
TTITLE8=There But For the Grace of ...
EXTD=YEAR: 1993
EXTT0=
EXTT1=
EXTT2=
EXTT3=
EXTT4=
EXTT5=
EXTT6=
EXTT7=
EXTT8=
PLAYORDER=
